#!OML:ASF H:\MichaelJackson\Top Level 1\Subject 1\Session 1\male.ASF
:FULLY-SPECIFIED
:DEGREES
24
root 21.4591 16.9041 -15.8361 8.07966 12.9472 3.44161
lowerback 4.52235 -0.110089 -4.42808
upperback 1.235 -0.337695 0.504056
thorax -1.23515 -0.161168 3.02311
lowerneck -7.15898 -3.40685 1.27913
upperneck 2.768 -4.6725 0.23471
head 2.06745 -2.30643 -0.326632
rclavicle -2.05742e-014 2.3059e-014
rhumerus -46.0579 -11.4943 -77.6083
rradius 34.7228
rwrist 15.6237
rhand -17.7152 -19.8421
rfingers 7.12502
rthumb 8.54522 -49.6491
lclavicle -2.05742e-014 2.3059e-014
lhumerus -39.4497 -20.3017 95.9415
lradius 70.8416
lwrist 12.4973
lhand -17.6825 14.0714
lfingers 7.12502
lthumb 8.57676 43.8772
rfemur -51.8626 -5.01261 16.5818
rtibia 65.71
rfoot 18.9878 7.32309
rtoes 17.9013
lfemur -14.3269 4.86334 -26.5187
ltibia 29.3605
lfoot -21.3538 3.0446
ltoes 13.8973
25
root 21.4767 16.8948 -15.6898 8.02704 13.087 3.63411
lowerback 4.18112 -0.320904 -4.44066
upperback 1.28537 -0.602234 0.420837
thorax -0.970737 -0.300187 2.9545
lowerneck -7.15883 -3.32881 1.04677
upperneck 2.84815 -4.55697 0.430098
head 2.10501 -2.24525 -0.222778
rclavicle 4.64659e-014 1.47101e-014
rhumerus -46.8828 -11.2416 -77.4187
rradius 34.5885
rwrist 15.9217
rhand -15.9196 -19.2143
rfingers 7.12502
rthumb 10.2777 -48.9432
lclavicle 4.64659e-014 1.47101e-014
lhumerus -38.8172 -20.0177 95.0307
lradius 73.9069
lwrist 14.2425
lhand -15.6606 13.5342
lfingers 7.12502
lthumb 10.5276 43.2506
rfemur -51.427 -4.8634 16.1716
rtibia 62.7543
rfoot 17.5505 7.75763
rtoes 17.8562
lfemur -13.4008 4.76287 -26.5989
ltibia 28.9223
lfoot -21.6864 3.22855
ltoes 13.1892
26
root 21.4933 16.8842 -15.5427 7.98673 13.1779 3.77979
lowerback 3.80797 -0.508763 -4.4368
upperback 1.33589 -0.833438 0.355123
thorax -0.691728 -0.422884 2.8899
lowerneck -7.16075 -3.25097 0.814624
upperneck 2.9118 -4.44203 0.631341
head 2.13738 -2.18435 -0.116698
rclavicle -7.30534e-015 -1.74931e-014
rhumerus -47.7049 -11.0179 -77.2022
rradius 34.5577
rwrist 15.9887
rhand -14.4067 -18.5597
rfingers 7.12502
rthumb 11.7369 -48.2109
lclavicle -7.30534e-015 -1.74931e-014
lhumerus -38.0593 -19.5057 94.0322
lradius 76.9155
lwrist 16.3544
lhand -12.7811 12.8419
lfingers 7.12502
lthumb 13.3042 42.3972
rfemur -50.912 -4.59483 15.7564
rtibia 59.6843
rfoot 16.1054 7.99655
rtoes 17.5232
lfemur -12.5133 4.72826 -26.6213
ltibia 28.5134
lfoot -22.0497 3.35536
ltoes 12.6339
27
root 21.5092 16.8716 -15.3951 7.96587 13.2349 3.9011
lowerback 3.41071 -0.682824 -4.42867
upperback 1.38368 -1.04472 0.299653
thorax -0.404087 -0.535719 2.82963
lowerneck -7.16502 -3.16992 0.582992
upperneck 2.95816 -4.32304 0.837382
head 2.1643 -2.12144 -0.00860158
rclavicle -5.66536e-015 3.57812e-015
rhumerus -48.5046 -10.8633 -76.9334
rradius 34.5915
rwrist 15.8124
rhand -13.2389 -17.8426
rfingers 7.12502
rthumb 12.8629 -47.4262
lclavicle -5.66536e-015 3.57812e-015
lhumerus -37.1817 -18.7577 92.9514
lradius 79.828
lwrist 18.8969
lhand -8.97694 12.1273
lfingers 7.12502
lthumb 16.9686 41.406
rfemur -50.3288 -4.21964 15.3028
rtibia 56.5312
rfoot 14.6111 7.99859
rtoes 16.7079
lfemur -11.6688 4.75671 -26.6068
ltibia 28.1384
lfoot -22.4504 3.39766
ltoes 12.2834
28
root 21.5239 16.8568 -15.2479 7.96447 13.2762 4.01426
lowerback 3.00524 -0.851329 -4.4247
upperback 1.42739 -1.24823 0.249664
thorax -0.116879 -0.64453 2.77435
lowerneck -7.16143 -3.08333 0.349152
upperneck 2.97727 -4.1965 1.05072
head 2.18067 -2.05484 0.103187
rclavicle -3.07619e-014 1.63003e-014
rhumerus -49.2617 -10.8075 -76.5944
rradius 34.6366
rwrist 15.4155
rhand -12.5146 -17.0477
rfingers 7.12502
rthumb 13.5611 -46.5861
lclavicle -3.07619e-014 1.63003e-014
lhumerus -36.1946 -17.778 91.8012
lradius 82.5998
lwrist 21.9247
lhand -4.48087 11.5671
lfingers 7.12502
lthumb 21.2921 40.4174
rfemur -49.6852 -3.7475 14.7855
rtibia 53.3273
rfoot 13.0678 7.77553
rtoes 15.2427
lfemur -10.8606 4.83153 -26.5706
ltibia 27.7854
lfoot -22.8763 3.35422
ltoes 12.0904
29
root 21.5379 16.8402 -15.1013 7.97688 13.3194 4.10348
lowerback 2.59566 -1.02107 -4.39453
upperback 1.46863 -1.45252 0.206532
thorax 0.169317 -0.753425 2.70878
lowerneck -7.16636 -2.99278 0.118588
upperneck 2.98117 -4.06475 1.26164
head 2.19304 -1.98577 0.214113
rclavicle -1.12313e-014 -2.78299e-015
rhumerus -49.9586 -10.8638 -76.1804
rradius 34.6733
rwrist 14.7447
rhand -12.2508 -16.2488
rfingers 7.12502
rthumb 13.8153 -45.77
lclavicle -1.12313e-014 -2.78299e-015
lhumerus -35.1065 -16.5766 90.5925
lradius 85.19
lwrist 25.4827
lhand 0.535676 11.2734
lfingers 7.12502
lthumb 26.1034 39.4994
rfemur -48.9916 -3.1827 14.2126
rtibia 50.1089
rfoot 11.5019 7.29562
rtoes 13.5043
lfemur -10.0814 4.93144 -26.4969
ltibia 27.438
lfoot -23.3088 3.24354
ltoes 11.9905
30
root 21.5508 16.8221 -14.9555 8.00541 13.4035 4.21576
lowerback 2.19889 -1.20822 -4.37414
upperback 1.5074 -1.68094 0.156716
thorax 0.447341 -0.873994 2.63984
lowerneck -7.17565 -2.8971 -0.109504
upperneck 2.96907 -3.92598 1.4687
head 2.20031 -1.91338 0.324011
rclavicle -8.99501e-015 0
rhumerus -50.583 -11.035 -75.6969
rradius 34.6788
rwrist 13.7796
rhand -12.4643 -15.538
rfingers 7.12502
rthumb 13.6095 -45.0731
lclavicle -8.99501e-015 0
lhumerus -33.9289 -15.1639 89.336
lradius 87.5509
lwrist 29.5866
lhand 5.81678 11.2898
lfingers 7.12502
lthumb 31.1487 38.6628
rfemur -48.2439 -2.56732 13.5316
rtibia 46.91
rfoot 9.95079 6.54625
rtoes 11.8617
lfemur -9.30918 5.04193 -26.4303
ltibia 27.0718
lfoot -23.7303 3.0648
ltoes 11.899
31
root 21.5627 16.803 -14.8108 8.05137 13.5504 4.36918
lowerback 1.82104 -1.41846 -4.37135
upperback 1.54449 -1.94123 0.0945151
thorax 0.715221 -1.01011 2.56587
lowerneck -7.18127 -2.79888 -0.340924
upperneck 2.937 -3.78315 1.6761
head 2.1999 -1.83916 0.435204
rclavicle 8.00108e-015 1.74931e-014
rhumerus -51.1312 -11.3174 -75.1537
rradius 34.6539
rwrist 12.5088
rhand -13.1498 -15.0271
rfingers 7.12502
rthumb 12.9487 -44.6053
lclavicle 8.00108e-015 1.74931e-014
lhumerus -32.6693 -13.564 88.0532
lradius 89.6343
lwrist 34.2034
lhand 11.1504 11.6321
lfingers 7.12502
lthumb 36.2166 37.8951
rfemur -47.4457 -1.92636 12.7262
rtibia 43.7656
rfoot 8.45652 5.5475
rtoes 10.6749
lfemur -8.53534 5.15817 -26.3898
ltibia 26.6695
lfoot -24.125 2.81903
ltoes 11.7191
32
root 21.5726 16.7851 -14.6668 8.08024 13.7673 4.50883
lowerback 1.46848 -1.65564 -4.30583
upperback 1.59312 -2.23746 0.00562365
thorax 0.979348 -1.16324 2.42678
lowerneck -7.17759 -2.6943 -0.553445
upperneck 2.88038 -3.63402 1.90282
head 2.18917 -1.7612 0.550052
rclavicle -4.03036e-014 -1.86858e-014
rhumerus -51.6028 -11.7277 -74.6041
rradius 34.606
rwrist 10.9825
rhand -14.2689 -14.819
rfingers 7.12502
rthumb 11.8698 -44.4625
lclavicle -4.03036e-014 -1.86858e-014
lhumerus -31.3261 -11.8063 86.7069
lradius 91.3985
lwrist 39.2987
lhand 16.1184 12.3109
lfingers 7.12502
lthumb 40.9034 37.2579
rfemur -46.5866 -1.2247 11.8508
rtibia 40.7126
rfoot 7.073 4.30561
rtoes 10.2935
lfemur -7.72753 5.25923 -26.3104
ltibia 26.2094
lfoot -24.4715 2.53362
ltoes 11.4355
33
root 21.581 16.7682 -14.5236 8.08926 14.0605 4.63182
lowerback 1.15463 -1.91196 -4.18981
upperback 1.64669 -2.56084 -0.0954088
thorax 1.22435 -1.32849 2.2448
lowerneck -7.16171 -2.59201 -0.753789
upperneck 2.80883 -3.48899 2.13534
head 2.17072 -1.68515 0.664877
rclavicle 6.27663e-014 -2.18663e-014
rhumerus -52.0194 -12.2443 -74.0391
rradius 34.5574
rwrist 9.28239
rhand -15.8076 -14.986
rfingers 7.12502
rthumb 10.3857 -44.7095
lclavicle 6.27663e-014 -2.18663e-014
lhumerus -29.9062 -9.9095 85.3504
lradius 92.7965
lwrist 44.7376
lhand 20.4838 13.375
lfingers 7.12502
lthumb 44.9855 36.8803
rfemur -45.676 -0.489251 10.9301
rtibia 37.7907
rfoot 5.81654 2.87994
rtoes 10.6482
lfemur -6.88461 5.31022 -26.1927
ltibia 25.6931
lfoot -24.7572 2.25003
ltoes 11.0199
34
root 21.5881 16.7523 -14.3812 8.09982 14.4361 4.79094
lowerback 0.874004 -2.18807 -4.07193
upperback 1.69832 -2.91245 -0.222096
thorax 1.44677 -1.50653 2.03331
lowerneck -7.12739 -2.49477 -0.938776
upperneck 2.73022 -3.35201 2.37021
head 2.14597 -1.61306 0.777834
rclavicle -1.635e-014 9.93923e-016
rhumerus -52.3954 -12.8469 -73.4723
rradius 34.5117
rwrist 7.55716
rhand -17.7538 -15.5731
rfingers 7.12502
rthumb 8.50789 -45.3817
lclavicle -1.635e-014 9.93923e-016
lhumerus -28.4201 -7.912 84.0192
lradius 93.8084
lwrist 50.3407
lhand 23.6358 14.916
lfingers 7.12502
lthumb 47.9058 37.1726
rfemur -44.7336 0.222219 9.93774
rtibia 35.0385
rfoot 4.69401 1.34623
rtoes 11.7105
lfemur -6.0154 5.30288 -26.096
ltibia 25.1258
lfoot -24.9827 1.95887
ltoes 10.4925
35
root 21.5931 16.7377 -14.2387 8.07447 14.8667 4.91283
lowerback 0.640376 -2.46443 -3.91853
upperback 1.75159 -3.26712 -0.343956
thorax 1.63991 -1.68458 1.80601
lowerneck -7.07232 -2.40853 -1.10376
upperneck 2.65423 -3.23102 2.59278
head 2.1175 -1.54924 0.883036
rclavicle -3.20043e-014 1.07344e-014
rhumerus -52.7501 -13.4827 -72.9276
rradius 34.4897
rwrist 5.93762
rhand -20.1022 -16.6187
rfingers 7.12502
rthumb 6.2411 -46.5067
lclavicle -3.20043e-014 1.07344e-014
lhumerus -26.877 -5.85415 82.7597
lradius 94.4253
lwrist 55.8569
lhand 25.0893 16.7595
lfingers 7.12502
lthumb 49.2432 38.3707
rfemur -43.7592 0.950619 8.97748
rtibia 32.5009
rfoot 3.70032 -0.277432
rtoes 13.3727
lfemur -5.1071 5.22751 -25.9423
ltibia 24.5239
lfoot -25.1547 1.72646
ltoes 9.80858
36
root 21.597 16.7241 -14.0967 8.03162 15.3316 5.01419
lowerback 0.449431 -2.72741 -3.75289
upperback 1.79579 -3.60691 -0.45529
thorax 1.79546 -1.85381 1.58296
lowerneck -6.99306 -2.34134 -1.24701
upperneck 2.58882 -3.13643 2.78672
head 2.08723 -1.49934 0.974487
rclavicle 3.03644e-014 -1.35174e-014
rhumerus -53.0881 -14.1064 -72.4145
rradius 34.472
rwrist 4.59568
rhand -22.8181 -18.1212
rfingers 7.12502
rthumb 3.6188 -48.0702
lclavicle 3.03644e-014 -1.35174e-014
lhumerus -25.2934 -3.79994 81.6273
lradius 94.653
lwrist 60.9499
lhand 24.6546 18.7555
lfingers 7.12502
lthumb 48.8438 40.5647
rfemur -42.7916 1.65457 8.06618
rtibia 30.2201
rfoot 2.82528 -1.91574
rtoes 15.3492
lfemur -4.18577 5.06386 -25.7662
ltibia 23.9078
lfoot -25.2733 1.56807
ltoes 9.02192
37
root 21.5995 16.7115 -13.9541 7.96712 15.8103 5.08429
lowerback 0.300154 -2.96516 -3.5986
upperback 1.82619 -3.9162 -0.53779
thorax 1.91141 -2.00709 1.39733
lowerneck -6.88696 -2.29792 -1.37055
upperneck 2.54378 -3.07415 2.93932
head 2.05797 -1.46662 1.04819
rclavicle 2.88486e-014 2.10712e-014
rhumerus -53.4086 -14.6553 -71.9493
rradius 34.4445
rwrist 3.64506
rhand -25.7985 -20.0999
rfingers 7.12502
rthumb 0.740385 -50.0783
lclavicle 2.88486e-014 2.10712e-014
lhumerus -23.6988 -1.84265 80.6685
lradius 94.5081
lwrist 65.229
lhand 22.1078 20.4723
lfingers 7.12502
lthumb 46.4934 43.3585
rfemur -41.839 2.31311 7.25578
rtibia 28.2241
rfoot 2.03747 -3.50342
rtoes 17.3551
lfemur -3.2631 4.82335 -25.558
ltibia 23.3144
lfoot -25.3684 1.49406
ltoes 8.17767
38
root 21.6006 16.6988 -13.8111 7.88142 16.2728 5.10748
lowerback 0.192863 -3.1674 -3.45898
upperback 1.8381 -4.18147 -0.576983
thorax 1.98444 -2.13801 1.2671
lowerneck -6.75685 -2.2775 -1.48569
upperneck 2.5244 -3.04238 3.05025
head 2.03231 -1.45025 1.10602
rclavicle -1.2921e-015 2.5842e-015
rhumerus -53.6988 -15.0769 -71.547
rradius 34.3763
rwrist 3.19387
rhand -28.8903 -22.5496
rfingers 7.12502
rthumb -2.24578 -52.5175
lclavicle -1.2921e-015 2.5842e-015
lhumerus -22.1211 -0.11059 79.9147
lradius 94.0085
lwrist 68.2378
lhand 17.9103 21.394
lfingers 7.12502
lthumb 42.5836 45.7854
rfemur -40.9284 2.90435 6.60119
rtibia 26.5414
rfoot 1.3109 -4.97334
rtoes 19.1199
lfemur -2.35879 4.49825 -25.3129
ltibia 22.7739
lfoot -25.4454 1.53463
ltoes 7.28988
